<?xml version="1.0" encoding="UTF-8"?>
<svg width="16px" height="16px" viewBox="0 0 16 16" version="1.1" xmlns="http://www.w3.org/2000/svg" xmlns:xlink="http://www.w3.org/1999/xlink">
    <!-- Generator: Sketch 56.3 (81716) - https://sketch.com -->
    <title>Manual</title>
    <desc>Created with Sketch.</desc>
    <g id="Manual" stroke="none" stroke-width="1" fill="none" fill-rule="evenodd">
        <g fill-rule="nonzero">
            <rect id="Rectangle" x="0" y="0" width="16" height="16"></rect>
            <path d="M8,1.33333333 C4.32377604,1.33333333 1.33333333,4.3240625 1.33333333,8 C1.33333333,11.6759375 4.32377604,14.6666667 8,14.6666667 C11.676224,14.6666667 14.6666667,11.6759375 14.6666667,8 C14.6666667,4.3240625 11.676224,1.33333333 8,1.33333333 Z M8,14.1111198 C4.6303125,14.1111198 1.88888021,11.3696875 1.88888021,8 C1.88888021,4.6303125 4.6303125,1.88888021 8,1.88888021 C11.3696875,1.88888021 14.1111198,4.6303125 14.1111198,8 C14.1111198,11.3696875 11.3696875,14.1111198 8,14.1111198 Z" id="Shape" fill="#1F2D3D"></path>
            <path d="M11.0555469,4.66666667 C10.5960156,4.66666667 10.2222135,5.04046875 10.2222135,5.5 L10.2222135,7.16666667 L8.55554687,7.16666667 L8.55554687,5.5 C8.55554687,5.04046875 8.18174479,4.66666667 7.72221354,4.66666667 C7.26268229,4.66666667 6.88888021,5.04046875 6.88888021,5.5 L6.88888021,7.16666667 L4.94442708,7.16666667 C4.48489583,7.16666667 4.11109375,7.54046875 4.11109375,8 L4.11109375,10.5 C4.11109375,10.9595312 4.48489583,11.3333333 4.94442708,11.3333333 C5.40395833,11.3333333 5.77776042,10.9595312 5.77776042,10.5 L5.77776042,8.83333333 L6.88888021,8.83333333 L6.88888021,10.5 C6.88888021,10.9595312 7.26268229,11.3333333 7.72221354,11.3333333 C8.18174479,11.3333333 8.55554687,10.9595312 8.55554687,10.5 L8.55554687,8.83333333 L10.2222135,8.83333333 L10.2222135,10.5 C10.2222135,10.9595312 10.5960156,11.3333333 11.0555469,11.3333333 C11.5150781,11.3333333 11.8888802,10.9595312 11.8888802,10.5 L11.8888802,5.5 C11.8888802,5.04046875 11.5150781,4.66666667 11.0555469,4.66666667 Z M11.3333333,10.5 C11.3333333,10.6532552 11.2085417,10.7777865 11.0555469,10.7777865 C10.9025521,10.7777865 10.7777604,10.6532812 10.7777604,10.5 L10.7777604,8.55554687 C10.7777604,8.40200521 10.6535156,8.27776042 10.499974,8.27776042 L8.27776042,8.27776042 C8.12421875,8.27776042 7.99997396,8.40200521 7.99997396,8.55554687 L7.99997396,10.5 C7.99997396,10.6532552 7.87518229,10.7777865 7.7221875,10.7777865 C7.56919271,10.7777865 7.44440104,10.6532812 7.44440104,10.5 L7.44440104,8.55554687 C7.44440104,8.40200521 7.32015625,8.27776042 7.16661458,8.27776042 L5.49994792,8.27776042 C5.34640625,8.27776042 5.22216146,8.40200521 5.22216146,8.55554687 L5.22216146,10.5 C5.22216146,10.6532552 5.09736979,10.7777865 4.944375,10.7777865 C4.79138021,10.7777865 4.66666667,10.6532552 4.66666667,10.5 L4.66666667,8 C4.66666667,7.84674479 4.79145833,7.72221354 4.94445312,7.72221354 L7.16666667,7.72221354 C7.32020833,7.72221354 7.44445312,7.59796875 7.44445312,7.44442708 L7.44445312,5.5 C7.44445312,5.34674479 7.56924479,5.22221354 7.72223958,5.22221354 C7.87523437,5.22221354 8,5.34674479 8,5.5 L8,7.44445312 C8,7.59799479 8.12424479,7.72223958 8.27778646,7.72223958 L10.5,7.72223958 C10.6535417,7.72223958 10.7777865,7.59799479 10.7777865,7.44445312 L10.7777865,5.5 C10.7777865,5.34674479 10.9025781,5.22221354 11.0555729,5.22221354 C11.2085677,5.22221354 11.3333333,5.34674479 11.3333333,5.5 L11.3333333,10.5 Z" id="Shape" fill="#1F2D3D"></path>
        </g>
    </g>
</svg>