<?xml version="1.0" encoding="UTF-8"?>
<svg width="16px" height="16px" viewBox="0 0 16 16" version="1.1" xmlns="http://www.w3.org/2000/svg" xmlns:xlink="http://www.w3.org/1999/xlink">
    <!-- Generator: Sketch 56.3 (81716) - https://sketch.com -->
    <title>5 seats</title>
    <desc>Created with Sketch.</desc>
    <g id="5-seats" stroke="none" stroke-width="1" fill="none" fill-rule="evenodd">
        <g fill-rule="nonzero">
            <g id="Rectangle">
                <rect x="0" y="0" width="16" height="16"></rect>
            </g>
            <path d="M4.84772059,9.93333333 C4.95230392,10.4888802 5.41242647,10.8888802 5.93529412,10.8888802 C6.01894608,10.8888802 6.10262255,10.8666667 6.16536765,10.8666667 C6.77191176,10.7333333 7.35752451,10.6666667 7.90132353,10.6666667 C8.44512255,10.6666667 9.03073529,10.7333333 9.61634804,10.8666667 C10.2228922,11 10.8085049,10.5777865 10.9339951,9.93333333 C10.954902,9.86666667 10.954902,9.77778646 10.9758333,9.71111979 C10.9967402,9.53333333 10.9967402,9.33333333 10.9549265,9.15557292 L10.3483824,6.37778646 C10.243799,5.93333333 9.93007353,5.6 9.53269608,5.48890625 C9.26080882,5.40002604 8.75884804,5.31111979 8.08955882,5.31111979 C8.00590686,5.31111979 7.94316176,5.31111979 7.94316176,5.31111979 L7.90132353,5.31111979 L7.83857843,5.31111979 C7.83857843,5.31111979 7.77583333,5.31111979 7.69218137,5.31111979 C7.02289216,5.31111979 6.54186275,5.4 6.24904412,5.48890625 C5.83073529,5.60002604 5.53794118,5.95557292 5.43335784,6.37778646 L4.82681373,9.15557292 C4.78497549,9.35557292 4.78497549,9.53335938 4.80590686,9.71111979 C4.82678922,9.8 4.82678922,9.86666667 4.84772059,9.93333333 Z M5.24509804,9.26666667 L5.85164216,6.48888021 C5.91438725,6.22221354 6.10262255,6 6.35360294,5.93333333 C6.60458333,5.86666667 7.06470588,5.77778646 7.69215686,5.77778646 C7.77580882,5.77778646 7.81764706,5.77778646 7.83855392,5.77778646 L7.90129902,5.77778646 L7.98495098,5.77778646 C7.98495098,5.77778646 8.04769608,5.77778646 8.11044118,5.77778646 C8.73789216,5.77778646 9.17710784,5.86666667 9.46992647,5.93333333 C9.72090686,6 9.90914216,6.22221354 9.97188725,6.48888021 L10.5784314,9.26666667 C10.6202696,9.4 10.6202696,9.51111979 10.5993382,9.64445313 C10.5784314,9.71111979 10.5784314,9.77778646 10.5575,9.84445313 C10.4784804,10.2222135 10.1383333,10.4808854 9.78365196,10.4336198 L9.78365196,9.77778646 C9.78365196,9.64445313 9.7,9.55557292 9.5745098,9.55557292 C9.44901961,9.55557292 9.36536765,9.64445313 9.36536765,9.77778646 L9.36536765,10.3534635 C9.22485294,10.3289583 9.08544118,10.3080469 8.94705882,10.2904167 L8.94705882,9.55557292 C8.94705882,9.42223958 8.86340686,9.33335938 8.73791667,9.33335938 C8.61242647,9.33335938 8.52877451,9.42223958 8.52877451,9.55557292 L8.52877451,10.2472917 C8.38821078,10.236276 8.24875,10.2288281 8.11046569,10.2251302 L8.11046569,9.33333333 C8.11046569,9.2 8.02681373,9.11111979 7.90132353,9.11111979 C7.77583333,9.11111979 7.69218137,9.2 7.69218137,9.33333333 L7.69218137,10.2251042 C7.55367647,10.2288021 7.41414216,10.2363021 7.27387255,10.2473438 L7.27387255,9.55554688 C7.27387255,9.42221354 7.19022059,9.33333333 7.06473039,9.33333333 C6.9392402,9.33333333 6.85558824,9.42221354 6.85558824,9.55554688 L6.85558824,10.2909375 C6.71651961,10.3089323 6.5770098,10.3303385 6.43727941,10.3554427 L6.43727941,9.77778646 C6.43727941,9.64445313 6.35362745,9.55557292 6.22813725,9.55557292 C6.10264706,9.55557292 6.0189951,9.64445313 6.0189951,9.77778646 L6.0189951,10.435651 C5.65632353,10.4725 5.34379902,10.2161458 5.26605392,9.84445313 C5.24514706,9.77778646 5.22421569,9.71111979 5.22421569,9.64445313 C5.2032598,9.53333333 5.22419118,9.4 5.24509804,9.26666667 Z" id="Shape" fill="#1F2D3D"></path>
            <path d="M13.1509804,12.4222135 C13.1509804,12.0444271 13.0254902,11.7110937 12.7954167,11.4888802 C12.5358088,11.2292708 12.1760049,11.135599 11.9355147,11.1039062 C12.0620588,10.7664844 12.1609804,10.3680729 12.2307108,9.91109375 C12.272549,9.55554687 12.272549,9.19997396 12.1888725,8.84442708 L11.4359314,5.48888021 C11.200049,4.6934375 10.3708333,4.32023438 9.57448529,4.14630208 L9.57448529,3.55554688 L10.160098,3.55554688 C10.3901716,3.55554688 10.5993137,3.44442708 10.6829657,3.26666667 C10.8084559,3.06666667 10.8502941,2.82221354 10.7666176,2.6 L10.4947304,1.8 C10.3901961,1.51111979 10.1392157,1.33333333 9.86732843,1.33333333 L5.91438725,1.33333333 C5.6425,1.33333333 5.39151961,1.51111979 5.28693627,1.77778646 L5.01504902,2.57778646 C4.95230392,2.8 4.97321078,3.04445313 5.09870098,3.24445313 C5.22419118,3.44445313 5.41242647,3.55557292 5.6425,3.55557292 L6.22811275,3.55557292 L6.22811275,4.14520833 C5.42367647,4.32020833 4.58345588,4.69856771 4.3457598,5.51111979 L3.61372549,8.84445313 C3.53007353,9.2 3.50914216,9.55557292 3.57188725,9.91111979 C3.64318627,10.3783594 3.74497549,10.784401 3.87563725,11.1265885 C3.63316176,11.1586979 3.2864951,11.2527344 3.02808824,11.5111198 C2.79803922,11.7555469 2.67254902,12.0666667 2.67254902,12.4666667 C2.67254902,12.4882812 2.81120098,14.5467188 5.18235294,14.6614323 L5.18235294,14.6666667 L5.3914951,14.6666667 L5.60063725,14.6666667 L10.2019608,14.6666667 L10.4111029,14.6666667 L10.6202451,14.6666667 L10.6202451,14.6614323 C12.9914216,14.5466927 13.1306618,12.4870313 13.1509804,12.4222135 Z M5.43333333,3 C5.3914951,2.93333333 5.3914951,2.84445313 5.41242647,2.75554688 L5.68431373,1.95554688 C5.70522059,1.84442708 5.80980392,1.77776042 5.91438725,1.77776042 L9.88823529,1.77776042 C9.99281863,1.77776042 10.0764706,1.84442708 10.1183088,1.95554688 L10.3901961,2.75554688 C10.4320343,2.84442708 10.4111029,2.93333333 10.3692892,3 C10.327451,3.06666667 10.243799,3.11111979 10.1601471,3.11111979 L5.6425,3.11111979 C5.55882353,3.11111979 5.47517157,3.06666667 5.43333333,3 Z M6.64639706,3.55554688 L9.15620098,3.55554688 L9.15620098,4.07101563 C8.49727941,3.97619792 7.94546569,3.99997396 7.90129902,3.99997396 C7.84875,3.99997396 7.30078431,3.97666667 6.64639706,4.07028646 L6.64639706,3.55554688 L6.64639706,3.55554688 Z M4.03203431,8.95554688 L4.76406863,5.62221354 C5.05688725,4.64442708 6.79281863,4.44442708 7.69218137,4.44442708 C7.77583333,4.44442708 7.83857843,4.44442708 7.90132353,4.44442708 C8.67517157,4.39997396 10.7248529,4.53330729 11.0385784,5.59997396 L11.8124265,8.95552083 C11.8960784,9.24440104 11.8960784,9.55552083 11.8542647,9.84440104 C11.8011765,10.1828385 11.7106373,10.6167188 11.5541912,11.0064063 L11.5405392,10.999974 L11.4359559,11.199974 C11.1766912,11.7085417 10.8602941,11.9744271 10.468799,11.9980469 C10.2327206,11.9075781 9.19882353,11.5657292 7.97534314,11.5559896 C7.9670098,11.5558854 7.95865196,11.5558333 7.95026961,11.5557813 C7.94090686,11.5557292 7.93161765,11.5555469 7.92223039,11.5555469 C7.91965686,11.5555469 7.91710784,11.555599 7.91453431,11.555625 C7.91012255,11.555625 7.90573529,11.5555469 7.90132353,11.5555469 C7.67046569,11.5555469 7.44612745,11.5680208 7.2322549,11.5888281 C7.23127451,11.5889323 7.23026961,11.5890104 7.22928922,11.5891146 C7.20644608,11.5913542 7.18370098,11.5936458 7.16107843,11.5960677 C6.2425,11.6916146 5.53889706,11.9286979 5.37156863,11.9995833 C5.36848039,11.9995833 5.36536765,11.9994792 5.36227941,11.999401 C4.44838235,11.9474219 4.11531863,10.6420052 3.99022059,9.84442708 C3.94835784,9.55554688 3.96928922,9.24445313 4.03203431,8.95554688 Z M3.09085784,12.4444531 C3.09085784,12.1777865 3.15360294,11.9777865 3.3,11.8222396 C3.55063725,11.578125 3.92634804,11.555651 4.07318627,11.5555729 C4.28017157,11.9289323 4.53644608,12.1882812 4.83867647,12.3266406 C4.94838235,12.3808073 5.06296569,12.4202865 5.18235294,12.4444531 L5.18235294,14.2222396 C3.21634804,14.1111198 3.09085784,12.5111198 3.09085784,12.4444531 Z M5.60066176,14.2222135 L5.60066176,12.3777604 C5.93443627,12.2669271 6.85080882,12.0014323 7.89321078,12.0000521 C7.9079902,12.0000781 7.9227451,12.0001302 7.93745098,12.0002604 C7.93960784,12.0002604 7.94176471,12.0002865 7.94392157,12.0003125 C8.98264706,12.0109115 9.88098039,12.278125 10.2019853,12.3816927 L10.2019853,14.2222135 L5.60066176,14.2222135 L5.60066176,14.2222135 Z M10.6202696,14.2 L10.6202696,12.4284375 C11.0755147,12.3598698 11.4480392,12.063151 11.7294363,11.5555729 C11.8762745,11.555625 12.2519853,11.578125 12.5026225,11.8222396 C12.6490196,11.9777865 12.7117647,12.1777865 12.7117647,12.4222396 C12.7117647,12.4888802 12.6071814,14.0888802 10.6202696,14.2 Z" id="Shape" fill="#1F2D3D"></path>
        </g>
    </g>
</svg>