<?xml version="1.0" encoding="UTF-8"?>
<svg width="16px" height="16px" viewBox="0 0 16 16" version="1.1" xmlns="http://www.w3.org/2000/svg" xmlns:xlink="http://www.w3.org/1999/xlink">
    <!-- Generator: Sketch 56.3 (81716) - https://sketch.com -->
    <title>fuel</title>
    <desc>Created with Sketch.</desc>
    <g id="fuel" stroke="none" stroke-width="1" fill="none" fill-rule="evenodd">
        <g>
            <g id="Group-38">
                <rect id="Rectangle" fill-rule="nonzero" x="0" y="0" width="16" height="16"></rect>
                <path d="M7.06666667,10 C7.28758057,10 7.46666667,10.1790861 7.46666667,10.4 L7.46666667,12.2666667 C7.46666667,12.4875806 7.28758057,12.6666667 7.06666667,12.6666667 C6.84575277,12.6666667 6.66666667,12.4875806 6.66666667,12.2666667 L6.66666667,10.4 C6.66666667,10.1790861 6.84575277,10 7.06666667,10 Z M13.5555556,10.4388889 L13,10.7166667 L13,9.77777778 L13.5555556,9.77777778 L13.5555556,10.4388889 Z M1.88888889,13.6666667 L8.55555556,13.6666667 L8.55555556,7 L1.88888889,7 L1.88888889,13.6666667 Z M1.88888889,6.44444444 L8.55555556,6.44444444 L8.55555556,2.55555556 L1.88888889,2.55555556 L1.88888889,6.44444444 Z M14.5961111,6.53888889 C14.4944444,6.42222222 14.3188889,6.41111111 14.2038889,6.51666667 C13.5472222,7.1 12.4444444,8.16111111 12.4444444,8.66666667 L12.4444444,12.8333333 C12.4444444,13.2944444 12.0705556,13.6666667 11.6111111,13.6666667 C11.1516667,13.6666667 10.7777778,13.2944444 10.7777778,12.8333333 L10.7777778,5.33333333 C10.7777778,4.72222222 10.2794444,4.22222222 9.66666667,4.22222222 L9.11111111,4.22222222 L9.11111111,2.27777778 C9.11111111,2.12777778 8.98722222,2 8.83333333,2 L1.61111111,2 C1.45777778,2 1.33333333,2.12777778 1.33333333,2.27777778 L1.33333333,13.9444444 C1.33333333,14.1 1.45777778,14.2222222 1.61111111,14.2222222 L8.83333333,14.2222222 C8.98722222,14.2222222 9.11111111,14.1 9.11111111,13.9444444 L9.11111111,4.77777778 L9.66666667,4.77777778 C9.97333333,4.77777778 10.2222222,5.02777778 10.2222222,5.33333333 L10.2222222,12.8333333 C10.2222222,13.6 10.845,14.2222222 11.6111111,14.2222222 C12.3772222,14.2222222 13,13.6 13,12.8333333 L13,11.3388889 L13.9577778,10.8611111 C14.0516667,10.8111111 14.1111111,10.7166667 14.1111111,10.6111111 L14.1111111,9.5 C14.1111111,9.35 13.9872222,9.22222222 13.8333333,9.22222222 L13,9.22222222 L12.9994444,8.67222222 C13.0361111,8.43888889 13.8427778,7.58333333 14.5738889,6.93333333 C14.6883333,6.82777778 14.6983333,6.65555556 14.5961111,6.53888889 Z" id="Fill-3886" fill="#1F2D3D"></path>
            </g>
            <path d="M3.04444443,5.55185156 C2.90951111,5.55185156 2.8,5.46059231 2.8,5.34444418 L2.8,3.68518516 C2.8,3.57318517 2.90951111,3.47777778 3.04444443,3.47777778 L7.44444423,3.47777778 C7.57986645,3.47777778 7.68888867,3.57318517 7.68888867,3.68518516 L7.68888867,5.34444418 C7.68888867,5.46059231 7.57986645,5.55185156 7.44444423,5.55185156 L3.04444443,5.55185156 Z M3.58333333,5 L6.88333333,5 C6.9849,5 7.06666667,4.956 7.06666667,4.9 L7.06666667,4.1 C7.06666667,4.046 6.9849,4 6.88333333,4 L3.58333333,4 C3.48213333,4 3.4,4.046 3.4,4.1 L3.4,4.9 C3.4,4.956 3.48213333,5 3.58333333,5 Z" id="Combined-Shape" fill="#1F2D3D"></path>
        </g>
    </g>
</svg>